<?xml version="1.0" encoding="UTF-8"?>
<svg enable-background="new 0 0 1024 752" version="1.1" viewBox="0 0 1024 752" xml:space="preserve" xmlns="http://www.w3.org/2000/svg">
<path d="m503.01 415.9c6.4213 10.062 7.6879 21.631 11.949 32.094 2.794 6.86 6.3813 13.172 11.363 18.68 0.99554 1.1009 2.2984 2.2993 2.56 3.6297 2.4031 12.218 12.617 15.419 22.16 19.239 3.9243 1.5706 9.1438 1.4169 7.9781 7.8679-0.62799 3.4756-4.5625 5.0708-11.102 3.0445-7.701-2.3864-15.008-2.2618-22.461 0.37515-3.304 1.1691-5.7873-0.40665-8.4095-3.0997-4.7212 6.5054-11.584 5.727-18.228 5.2461-14.458-1.0464-28.924-1.7333-43.421-1.6196-3.546 0.027802-6.999-0.42212-10.265-1.7761-3.8552-1.5984-5.9527-4.2184-4.415-8.6482 0.59412-1.7116 1.5761-3.5634-0.59991-4.8781-2.0392-1.2321-3.0221 0.64755-4.1534 1.7073-2.847 2.6668-5.9012 2.4381-9.2754 1.1566-4.1597-1.5798-8.0031-1.3896-11.17 2.8464 4.93 3.6215 11.36 0.45831 15.857 4.4495-1.2037 3.1683-3.6687 3.7438-6.3882 4.0934-5.6551 0.72702-9.0919-3.4692-13.19-6.0255-1.6565-1.0333-1.258-3.2641-0.21094-5.0105 2.2347-3.7272 9.6065-7.2048 13.588-5.2873 5.0405 2.4274 8.393 1.3652 11.44-2.7981 0.36478-0.49844 1.0568-0.75736 1.5157-1.0716 0.052826-0.48618 0.22705-0.88147 0.10358-1.1271-5.9398-11.817-2.9141-22.194 4.8644-31.978 4.2148-5.3014 6.8456-11.381 7.6132-18.202 0.51788-4.6022 3.0241-8.3846 5.4296-12.094-0.92215-1.8718-2.7849-2.0082-4.1615-2.8205-3.3203-1.9593-6.264-4.6221-6.5727-8.3716-0.66275-8.0513-5.0876-14.203-8.8099-20.882-4.6429-8.3309-8.4088-17.583-8.9267-26.826-0.35492-6.3346-0.41898-14.267 5.7026-19.882 5.8778-5.3911 11.066-11.534 16.558-17.346 2.7419-2.9019 5.2674-5.9196 9.8839-6.0367 2.9872-0.075866 3.2292-3.054 3.7071-5.2459 1.1327-5.1954 1.8832-10.476 3.0879-15.653 0.85321-3.6663 2.3442-7.275 6.9571-7.2914 4.6029-0.016479 6.0912 3.6455 7.1019 7.2277 1.1732 4.1585 1.8521 8.4541 2.8483 12.666 1.1538 4.8781 3.5856 8.5907 9.0216 9.4362 3.0674 0.47708 4.8676 2.7913 6.6504 4.9681 6.3332 7.733 12.536 15.571 19.581 22.693 3.8 3.8415 4.4598 8.3914 2.5953 13.387-1.3485 3.6133-3.1896 6.9413-5.4739 10.058-7.9341 10.824-12.399 23.107-14.944 36.158-0.85516 4.3857-0.14838 8.6126 2.0588 12.947m-59.333-60.052c-0.80344-4.632 0.83023-8.4653 3.743-11.97 4.9419-5.9465 9.0924-12.531 15.529-18.033-3.7347-1.1751-5.4878-3.0855-5.306-6.3215-2.8993 0.96436-4.2073 2.9428-5.6989 4.7197-4.6043 5.4852-9.0853 11.088-14.556 15.771-4.8172 4.1235-4.858 4.1367-0.37122 8.6072 1.5006 1.4951 2.7708 3.0172 1.8457 5.2419-0.92209 2.2172-2.5856 3.4234-5.115 3.0747-0.80789-0.11142-1.6612-0.38776-2.3607 1.101 3.0424 10.295 5.555 21.184 12.184 30.481 2.539 3.5605 5.1015 7.3192 5.2198 11.717 0.16864 6.2671 3.0349 9.8345 8.7971 11.775 3.9821 1.3414 4.5763 3.9822 1.9106 7.3138-1.9956 2.4941-4.0184 5.2268-4.3149 8.3531-0.9942 10.483-7.1426 18.464-12.355 26.938-2.3596 3.8358-3.1396 6.6767-3.0495 9.6128 7.753-17.223 18.472-33.267 30.465-48.413 4.8452-6.1183 10.878-11.383 19.954-10.266 2.8955 0.35651 5.0837-1.5868 6.2473-4.1929 1.2175-2.727 2.4084-5.5296 3.0868-8.4221 2.4697-10.53 6.6831-20.153 13.348-28.768 2.2026-2.847 3.5181-6.4009 5.1077-9.6951 1.3009-2.6961 0.67297-5.1014-1.3095-7.3454-6.7255-7.6125-13.357-15.307-20.074-22.928-1.42-1.6112-2.7141-3.6884-4.8914-4.1417-9.2252-1.9204-11.439-9.1371-13.181-16.843-0.61484-2.7197-0.32855-5.6339-1.6911-8.3317 0 4.2394 0.11475 8.3232-0.024109 12.398-0.28076 8.2379-0.33658 8.2336 7.2604 11.264 1.9894 0.79349 4.9511 1.4383 4.494 3.935-1.3108 7.1597 3.3173 11.509 6.9528 16.338 1.8576 2.4675 3.1922 6.2654 6.6551 6.3247 6.2077 0.10629 10.354 0.88382 10.752 8.7836 0.23907 4.7413 0.098266 6.9497-5.002 6.5317-2.8678-0.23498-4.9816 0.56744-6.426 2.8364-3.6691 5.764-7.5146 10.818-14.301 13.863-3.7281 1.6727-5.6006 2.9689-7.627-1.0006-5.4273 2.2357-5.4296 2.2564-11.359 1.5897-0.83362-0.093719-1.5526-0.2287-2.3774 0.19382-6.0579 3.1034-14.016 0.40204-16.513-5.803-2.0475-5.0886-3.7191-10.328-5.6495-16.289m10.798 128.34c11.286 2.0354 19.789-4.0239 22.091-16.154 1.6101-8.4838 2.7712-17.054 4.0521-25.598 0.56015-3.7363 2.3713-5.0849 6.2468-3.3558-2.9065-10.464 0.22507-19.805 4.8941-28.858-6.4064-1.4677-12.728 1.0309-17.582 6.8448-7.917 9.4818-14.491 19.914-21.058 30.341-3.5449 5.6288-7.2709 11.145-9.109 17.69-2.836 10.098-0.18323 15.417 10.465 19.09m31.363-10.697c2.5753 2.5798 5.3726-0.038544 8.051 0.33224 1.67 0.2312 3.5731 0.27191 4.2065 2.0703 0.74271 2.1086-1.0631 3.0463-2.6117 3.5648-15.208 5.0927-29.392 14.505-46.646 11.096-1.7221-0.34027-3.4879 0.4736-4.0804 2.2101-0.77667 2.2766 1.3493 2.834 2.8066 3.3173 1.5374 0.50995 3.2479 0.61517 4.8906 0.67267 17.281 0.60464 34.579 0.70608 51.838 1.9674 6.6393 0.48523 10.36-2.6808 11.347-9.218 0.94171-6.2385-1.2334-11.002-7.1322-14.015-5.3195-2.7169-10.912-4.9035-16.413-7.2584-1.7547-0.75122-3.4588-2.6878-5.4867-1.3726-2.1919 1.4215-1.4536 3.8177-0.77011 6.6329m22.651-30.611c-2.6002-7.9048-5.1114-15.841-7.8518-23.697-0.88876-2.5478-1.8678-5.3021-4.9039-6.4698-5.4956 7.673-7.5254 15.643-4.7981 24.689 2.1805 7.2319 6.1885 13.183 11.485 18.428 5.0876 5.0378 10.194 10.066 15.046 15.327 1.632 1.7697 4.9064 3.6161 1.4077 6.9393-0.87 0.82636 0.039734 2.8342 1.9162 3.1833 4.2649-5.1683 5.2151-9.069 2.339-12.179-6.8302-7.3863-11.042-16.168-14.64-26.221m-27.735-87.221c-4.6584-1.0256-8.0045-4.3819-12.461-7.58-0.32156 4.3838-5.2601 6.1639-4.9808 9.0783 0.47498 4.9567 2.2294 10.161 6.7827 13.383 1.9745 1.3974 4.3178 1.7462 6.6106 0.44559 3.7003-2.0992 6.3439-10.59 4.0486-15.327m-5.5223-7.3143c3.1408 2.9 7.7449 2.6258 11.422 5.9017-0.5957-7.0834-1.4587-13.134-8.1435-16.049-4.6064-2.0089-9.2496-1.632-13.133 1.5923-2.7529 2.2859-4.7687 5.2981-3.5567 9.3381 2.073-0.077209 2.335-1.5944 2.9385-2.6761 2.0531-3.6801 4.5071-4.1114 7.493-1.0791 0.81488 0.82758 1.6271 1.6578 2.9792 2.9723m-23.636-2.9c-2.9367 2.4013-4.3913 5.6675-3.8756 9.2619 0.78088 5.4419 2.6881 10.66 4.9329 15.669 1.3191 2.943 4.0659 4.3875 7.3462 4.2 1.7078-0.097596 3.4258-0.94482 3.8683-2.6876 0.47748-1.8802-0.8009-3.1868-2.5712-3.6801-3.2826-0.91464-4.6442-3.5256-5.9734-6.2692-2.516-5.1933-3.7525-10.622-3.7273-16.494m17.374-22.939c-1.1673 2.313-2.7536 4.4518-3.1888 7.8175 6.3639-2.4623 12.423-1.7567 18.732 0.71823-0.3295-2.183-0.47229-3.6527-0.78198-5.0863-1.094-5.0642-6.0312-5.1544-9.4849-7.0153-2.6271-1.4155-3.564 1.4472-5.2765 3.5659m20.592 48.492c2.2142-0.30212 3.5327-1.8202 4.4903-3.5989 2.1964-4.0793 4.6678-7.9479 8.5651-11.524-3.1534-1.6642-1.5782-4.4225-1.8485-6.3316-2.5946-1.885-4.777-3.4706-7.4354-5.4019 0.34998 1.5832 0.56561 2.5263 0.76651 3.4725 1.5041 7.0845 1.7854 13.846-4.264 19.339-0.89081 0.8089-2.1198 2.3075-0.27399 4.045m5.1101 91.977c-4.4672-4.5947-7.6197-10.054-10.457-16.996-0.27628 6.3575-2.5822 11.315-1.6465 17.299 4.077-2.6637 7.3433-0.96838 10.668 0.6412 0.45099 0.21835 2.0512 2.2483 1.4355-0.94486m38.875 31.38c-2.8314-3.2127-7.1063-5.0284-8.5421-9.5747-3.1085 1.9029-2.8251 4.8459-3.4586 7.2924-0.91498 3.5341 0.58527 5.1234 4.2366 4.3279 2.4351-0.53046 4.8448-1.1779 7.764-2.0457m-65.238-187.66c-0.95664 3.8146-1.5045 7.7283-2.6873 11.475 8.4688-4.7643 2.9332-12.371 3.731-18.7-0.28693 2.1383-0.57382 4.2766-1.0436 7.2241m32.303 155.9c0.99796 0.51572 1.9959 1.0314 2.9938 1.5471 0.11139-0.20413 0.22275-0.40826 0.33411-0.61243-4.2861-4.7061-8.5723-9.4122-12.858-14.118 1.4619 5.473 4.7735 9.4815 9.5305 13.184m-17.516 15.98c-0.85931-2.2102-1.7186-4.4204-2.6393-6.7885-1.4742 3.3246-2.8439 6.4138-4.3938 9.9094 2.8952-0.50742 5.1829-0.77277 7.0332-3.1209m56.792 12.032c0.13049-0.089081 0.33368-0.15478 0.37189-0.27353 0.040771-0.12701-0.027954-0.396-0.12762-0.44589-3.0976-1.5518-5.1974-4.9682-9.6447-5.3092 1.8303 4.4579 5.6655 4.8007 9.4005 6.0286z"/>
<path d="m200.61 397.76c0.88275-1.7621 2.3949-2.8231 2.3727-4.9689-3.2818-0.83594-6.4407 0.6619-9.6715 0.58679-12.567-0.29202-17.718-8.7882-11.762-19.866 4.5151-8.3973 11.234-14.85 18.877-20.335 14.472-10.385 30.431-17.03 48.284-18.874 4.3839-0.45285 8.6638-0.045563 12.906 0.79156 13.457 2.6555 19.023 16.706 11.234 28.111-4.8456 7.0948-11.96 11.445-19.043 15.841-0.53925 0.33466-1.324 0.3865-1.3817 1.5592 0.55911 0.30411 1.2116 0.81335 1.9506 1.0379 12.562 3.8181 19.453 18.985 11.353 33.854-6.6142 12.14-16.72 21.041-27.882 28.71-2.5471 1.7501-6.601-0.32028-9.8236 1.9137-4.3001 2.981-8.8536 5.4897-14.044 7.0837-5.6984 1.7499-11.453 3.2867-17.174 4.9424-2.2024 0.63736-4.1403 1.1287-6.0327 2.926-2.872 2.7277-6.377 0.65906-9.1089-0.99933-7.189-4.3643-8.7631-13.705-3.607-20.354 2.7628-3.5631 5.9549-6.7263 9.6888-9.3169 1.3346-0.92596 2.786-1.7525 2.3679-3.9336-1.4568-7.6005 1.9614-13.967 5.424-20.271 1.5223-2.7712 3.2497-5.4297 5.0733-8.4395m26.92-9.2017c-2.9839-0.42285-5.6047-0.40002-7.6737 2.576-6.0834 8.7504-12.4 17.339-17.712 26.601-0.68407 1.1927-1.6034 2.3808-1.1001 4.3954 17.945-9.2209 36.629-14.847 56.574-17.266-0.21811 2.0068-1.1961 1.9263-1.9413 2.1624-12.479 3.9543-25.444 5.4881-37 13.351-11.014 7.493-23.775 12.484-33.403 22.176-2.5255 2.5424-6.3356 5.7212-4.4456 9.2152 1.8414 3.4041 6.6405 2.8843 10.486 2.4581 16.168-1.7918 30.272-8.8144 43.525-17.661 10.73-7.1628 20.609-15.47 26.904-26.99 3.0312-5.5473 6.5339-11.699 1.2457-18.041-5.0941-6.1098-15.479-8.7926-23.199-6.3019-3.792 1.2234-7.6883 2.1234-12.26 3.3264m9.8758-40.7c1.7043-1.3973 2.1169-6.014 5.78-2.6605 7.1739 6.5675 7.2068 7.8947 1.1752 15.581-1.1295 1.4394-2.4448 2.7375-3.5244 4.2107-2.9518 4.0282-6.7956 7.4353-9.0881 11.998 1.7018 0.96713 2.7448 0.23224 3.7841-0.19281 10.234-4.1858 19.798-9.5129 28.293-16.662 2.9833-2.5104 5.2273-5.5511 6.9828-9.0167 1.4389-2.8406 0.99503-5.0327-1.6746-6.8943-7.3102-5.0976-15.027-8.2674-24.256-6.6048-6.4007 1.1532-12.662 2.5641-18.806 4.7798-17.2 6.2026-30.736 16.832-40.219 32.494-1.2801 2.1144-2.2903 4.4496-3.0612 6.8019-1.2345 3.7673 0.35268 6.5113 4.1856 6.931 9.751 1.0677 19.01 1.1825 25.72-8.4466 7.6076-10.916 16.154-21.178 24.709-32.319z"/>
<path d="m595.36 414.31c-6.1158 9.3554-11.966 18.449-16.599 28.252-1.9244 4.0722-3.7722 8.2214-4.3499 12.714-0.46258 3.5988-0.7359 7.3291 2.4058 10.192-4.3223 2.0055-9.2603-0.99249-9.9005-6.1751-0.71661-5.8021-0.53821-11.588 1.7576-17.2 8.6509-21.146 21.778-39.656 34.384-58.453 8.5137-12.695 17.807-24.848 27.538-37.259-5.7841-1.0255-10.775 0.6236-15.824 1.0112-6.3018 0.4837-12.586 1.2764-18.851 2.1273-3.6098 0.49017-7.3406 0.98941-10.289 3.4114-6.2558 5.1394-14.013 2.1204-20.966 3.9232-9.7832 2.5369-19.983 3.4731-30.012 5.0536-3.0481 0.48038-5.9594 0.91315-7.0695-3.3076-1.1074-4.2105 1.8672-4.9254 4.5086-5.7127 13.346-3.9779 26.993-6.1606 40.922-5.1904 11.771 0.81986 23.208-1.3964 34.759-2.7465 6.6112-0.77268 13.241-1.8708 19.865-1.894 5.1174-0.017884 7.8544-2.4092 10.352-6.2675 3.7898-5.8542 4.2122-5.7867 8.1432-0.3425 2.634 3.6479 2.634 3.6479 6.7197 6.1349-7.3923 1.0419-9.7166 7.3418-13.433 11.972-15.426 19.217-30.348 38.819-44.061 59.756z"/>
<path d="m386.81 402.64c-0.53485 1.5175-1.7321 2.5197-1.0081 4.315 3.1724-0.39905 5.0598-2.8662 7.0703-4.8276 3.4494-3.3649 6.6534-6.9924 9.8285-10.625 5.0458-5.773 9.9207-4.965 12.505 2.3559 0.91922 2.6044 1.135 5.4571 1.6832 8.2537 3.649 1.3175 6.9882-2.4299 11.056-0.3941-2.4624 2.3443-5.463 2.5635-8.063 3.5518-2.5134 0.95538-4.0626 2.3667-4.7879 5.1602-4.1034 15.804-12.72 29.188-23.581 41.024-7.321 7.9785-16.003 14.48-26.876 17.205-8.5289 2.137-16.183-0.091004-22.996-5.2128-3.7177-2.7946-3.4655-6.9614-2.3744-10.991 1.4823-5.4749 4.9399-9.7474 8.7891-13.727 8.2082-8.4869 18.142-14.534 28.428-20.093 1.8487-0.99908 4.0674-1.4656 5.3733-3.2825-0.19662-1.4536-1.342-1.9745-2.2566-2.6265-5.943-4.2367-6.9208-7.3428-3.9658-13.864 1.4402-3.1784 3.16-6.2546 5.6361-8.7864 1.7599-1.7995 3.3856-4.9504 6.3883-1.8929 2.4107 2.4547 6.1853 4.7715 2.5556 9.1262-1.2669 1.5199-2.1684 3.3443-3.4047 5.3322m-32.25 38.426c-3.7447 3.8478-7.0019 7.9898-8.5544 13.272-2.0886 7.1062 1.3544 11.031 8.7585 9.7768 7.2023-1.2196 13.611-4.3392 19.309-8.8021 14.501-11.357 23.731-26.688 31.886-42.796 0.30267-0.59784 0.41144-1.2749-0.98944-2.426-18.435 6.6529-35.728 15.927-50.41 30.975m51.847-35.168c4.8842-2.7125 6.432-9.3368 2.8528-15.036-5.1472 6.4347-10.119 12.651-15.638 19.55 4.6057-1.6085 8.3417-2.9132 12.786-4.5143z"/>
<path d="m383.56 343.23c5.394 6.4673 5.5317 6.5564 1.1402 13.351-9.1158 14.103-18.568 28.007-26.349 42.913-4.5277 8.6738-9.3615 17.261-11.964 26.796-0.7609 2.7879-2.0415 5.8026 1.4388 8.203-6.4067 1.4674-8.8346-0.32358-9.1505-5.8297-0.34406-5.9979 2.1275-11.36 3.6698-17.125-1.4855-0.2395-2.0511 1.0027-2.6445 1.722-3.4581 4.1914-7.0741 2.3029-10.707 0.4324-3.466-1.7847-4.2757-4.6783-3.7769-8.3796 0.77405-5.743 3.554-10.254 7.6868-14.151 6.3176-5.9558 10.064-6.3224 17.167-1.2815 5.2503-5.5969 8.8424-12.342 12.599-18.936 5.2012-9.1309 11.568-17.47 17.35-26.204 0.75595-1.1418 1.5707-2.2141 3.5404-1.5095m-43.047 61.783c2.2788-4.382 7.7469-7.5327 5.7111-13.904-7.1621 2.9168-12.538 12.644-11.15 19.77 2.4952-1.0273 3.4989-3.4094 5.4388-5.8662z"/>
<path d="m673.61 426.59c-7.2205-2.2967-9.6653-6.9796-7.6206-13.631 1.8614-6.0551 5.6854-10.855 9.7107-15.547 1.7631-2.0548 3.4835-2.3748 5.3279-0.08136 1.8222 2.2659 4.5583 3.8985 4.6698 7.6675 2.8596-2.1535 5.2259-4.2319 7.8781-5.8385 2.0969-1.2702 4.6341-3.8844 6.9858-0.82938 2.065 2.6826 5.1583 5.3349 1.8129 9.5878-2.3202 2.9497-3.6529 6.6862-5.3537 10.107-0.58484 1.1765-0.98755 2.4602-0.27557 4.0547 4.3131-0.13748 6.596-3.3318 9.3629-5.8265 1.3928-1.2559 2.5868-4.4182 5.0968-1.9221 2.2634 2.251-0.33832 3.9211-1.5843 5.4554-1.7733 2.1838-3.66 4.304-6.3094 5.5716-4.1236 1.9729-7.8491 2.9113-11.915-0.71619-4.016-3.5825-4.3505-7.5545-3.0732-12.178 0.42908-1.5529 0.99109-3.0691 1.8237-5.6153-6.087 6.9352-11.89 12.629-16.536 19.741z"/>
<path d="m744.21 423.36c-8.9124 5.6483-14.954 5.1948-22.476-1.4068-2.1281-1.8678-3.1646-4.2697-3.5066-6.9783-0.90735-7.1848 7.1785-17.852 14.291-18.936 3.8546-0.58774 7.3989 2.6301 7.8964 7.1691 0.74219 6.7698-3.6033 12.759-10.315 14.082-1.1975 0.23611-2.4297 0.2645-2.5501 1.785-0.13757 1.7377 0.95465 2.872 2.4119 3.4196 2.6921 1.0118 5.2509 0.2612 7.6486-1.0924 3.791-2.1401 7.1587-4.8501 10.412-7.7276 1.2288-1.0868 2.6431-2.3771 4.281-0.5448 1.5931 1.7823 0.33313 3.097-0.93054 4.2245-2.2333 1.9928-4.5669 3.8732-7.163 6.0055z"/>
<path d="m636.49 395.95c8.5746-0.30609 13.28 4.3806 15.161 14.64 1.7224 0.68909 3.1893-0.30524 4.744-0.75049 1.427-0.40872 2.7166-0.25238 3.2742 1.3304 0.51703 1.4678-0.52777 2.4511-1.6758 2.5131-7.205 0.3891-11.013 5.5275-15.239 10.319-2.7005 3.062-5.9878 3.6458-9.7962 1.2125-4.0848-2.6099-7.3385-5.4761-5.8616-10.815 0.97906-3.5392 1.737-7.0031 1.6863-10.732-0.06372-4.6758 3.465-6.4167 7.7068-7.7175m5.6746 5.4311c-2.5007-0.065583-4.9979-0.12228-6.6423 2.6611 1.5229 2.8845 4.0848 4.7975 6.8105 7.7689 1.1984-3.9427 4.6595-6.7679-0.16827-10.43m-5.0208 17.812c0.82886-1.4087 3.0418-2.0518 2.381-4.6572-3.491 0.41785-4.2545 2.6163-4.0972 5.5421 0.43744-0.17258 0.87494-0.34512 1.7162-0.88492z"/>
<path d="m317.68 400.1c2.7382 1.8872 2.3603 3.6475-0.3692 4.1365-6.0512 1.0841-10.231 4.361-13.858 9.2184-2.2699 3.0393-5.7229 5.1836-10.056 2.7181-6.0106-3.4203-7.8659-6.361-6.3949-11.951 0.89413-3.3982 1.5889-6.6533 1.4197-10.229-0.17038-3.6011 2.4791-5.7156 5.6163-6.8738 3.9853-1.4714 7.845-1.2909 11.19 1.7589 3.5689 3.2542 5.9188 7.0889 5.209 12.008 2.8423 0.78946 4.765-0.66736 7.2436-0.78537m-20.949-3.0711c1.2654 1.7075 2.5308 3.415 3.6869 4.9751 3.2693-2.2401 3.5327-4.6337 4.02-6.8463 0.30655-1.3919-0.23169-2.7863-1.6453-3.2795-2.5319-0.88327-4.9726-0.071106-7.0265 1.347-1.5574 1.0754-0.38431 2.3186 0.96487 3.8037m1.2271 11.401c0.56519-0.89722 1.8637-1.5626 1.0732-2.8949-0.19446-0.32767-0.9274-0.67551-1.2182-0.55286-2.4228 1.0223-2.4945 3.365-3.2427 5.479 1.6892 0.28137 2.1549-0.97421 3.3877-2.0312z"/>
<path d="m670.59 340.33c18.537-0.80264 36.646-0.93704 54.697 1.319 1.809 0.2261 3.5823 0.7327 5.3906 0.96918 4.2827 0.56015 7.118 2.0327 6.7278 7.2644-0.39423 5.2859-3.5422 6.5438-8.7477 7.0799 2.1131-7.9724-3.8953-7.3742-8.4882-9.6272-11.634-5.7071-23.806-3.8343-35.819-4.2681-8.1257-0.29346-16.276 0.13022-24.416 0.16977-1.0364 0.005065-2.3829 0.46466-3.2403-1.7432 4.472-1.4967 9.1212-0.36871 13.896-1.1637z"/>
</svg>
