<?xml version="1.0"?>
<svg width="587" height="203" xmlns="http://www.w3.org/2000/svg" xmlns:svg="http://www.w3.org/2000/svg" version="1.1" xml:space="preserve">
 <desc>Created with Fabric.js 5.2.4</desc>

 <g class="layer">
  <title>Layer 1</title>
  <g id="dbbc0c5f-24c7-49a2-a709-50dc687434c9" transform="matrix(1 0 0 1 540 540)"/>
  <g id="svg_2" transform="matrix(0.986207 0 0 0.908659 529.621 505.445)">
   <g id="svg_3">
    <g id="svg_4" transform="matrix(1 0 0 1 20.89 0)">
     <path d="m265.11,-28.1c6.42,10.06 7.69,21.63 11.95,32.09c2.79,6.86 6.38,13.18 11.36,18.68c1,1.1 2.3,2.3 2.56,3.63c2.41,12.22 12.62,15.42 22.16,19.24c3.93,1.57 9.15,1.42 7.98,7.87c-0.63,3.48 -4.56,5.07 -11.1,3.05c-7.7,-2.39 -15.01,-2.27 -22.46,0.37c-3.31,1.17 -5.79,-0.41 -8.41,-3.1c-4.72,6.51 -11.59,5.73 -18.23,5.25c-14.46,-1.05 -28.92,-1.74 -43.42,-1.62c-3.55,0.02 -7,-0.43 -10.27,-1.78c-3.85,-1.6 -5.95,-4.22 -4.41,-8.65c0.59,-1.71 1.57,-3.56 -0.6,-4.88c-2.04,-1.23 -3.02,0.65 -4.15,1.71c-2.85,2.67 -5.91,2.44 -9.28,1.16c-4.16,-1.58 -8,-1.39 -11.17,2.84c4.93,3.63 11.36,0.46 15.86,4.45c-1.21,3.17 -3.67,3.75 -6.39,4.1c-5.66,0.72 -9.09,-3.47 -13.19,-6.03c-1.66,-1.03 -1.26,-3.26 -0.21,-5.01c2.23,-3.73 9.6,-7.2 13.59,-5.29c5.04,2.43 8.39,1.37 11.44,-2.79c0.36,-0.5 1.05,-0.76 1.51,-1.08c0.05,-0.48 0.23,-0.88 0.11,-1.12c-5.94,-11.82 -2.92,-22.2 4.86,-31.98c4.21,-5.3 6.85,-11.38 7.61,-18.2c0.52,-4.6 3.03,-8.39 5.43,-12.1c-0.92,-1.87 -2.78,-2 -4.16,-2.82c-3.32,-1.96 -6.26,-4.62 -6.57,-8.37c-0.66,-8.05 -5.09,-14.2 -8.81,-20.88c-4.64,-8.33 -8.41,-17.58 -8.93,-26.83c-0.35,-6.33 -0.42,-14.26 5.7,-19.88c5.88,-5.39 11.07,-11.53 16.56,-17.34c2.74,-2.91 5.27,-5.92 9.89,-6.04c2.98,-0.08 3.23,-3.06 3.7,-5.25c1.14,-5.19 1.89,-10.47 3.09,-15.65c0.85,-3.67 2.35,-7.27 6.96,-7.29c4.6,-0.02 6.09,3.64 7.1,7.23c1.17,4.15 1.85,8.45 2.85,12.66c1.15,4.88 3.58,8.59 9.02,9.44c3.07,0.48 4.87,2.79 6.65,4.97c6.33,7.73 12.54,15.57 19.58,22.69c3.8,3.84 4.46,8.39 2.6,13.39c-1.35,3.61 -3.19,6.94 -5.48,10.05c-7.93,10.83 -12.4,23.11 -14.94,36.16c-0.86,4.39 -0.15,8.62 2.06,12.95m-59.34,-60.05c-0.8,-4.63 0.83,-8.47 3.75,-11.97c4.94,-5.95 9.09,-12.53 15.53,-18.04c-3.74,-1.17 -5.49,-3.08 -5.31,-6.32c-2.9,0.97 -4.21,2.95 -5.7,4.72c-4.6,5.49 -9.08,11.09 -14.55,15.77c-4.82,4.13 -4.86,4.14 -0.38,8.61c1.5,1.5 2.78,3.02 1.85,5.24c-0.92,2.22 -2.59,3.43 -5.11,3.08c-0.81,-0.11 -1.67,-0.39 -2.37,1.1c3.05,10.29 5.56,21.18 12.19,30.48c2.54,3.56 5.1,7.32 5.22,11.72c0.17,6.26 3.03,9.83 8.8,11.77c3.98,1.34 4.57,3.98 1.91,7.32c-2,2.49 -4.02,5.22 -4.32,8.35c-0.99,10.48 -7.14,18.46 -12.35,26.94c-2.36,3.83 -3.14,6.67 -3.05,9.61c7.75,-17.22 18.47,-33.27 30.46,-48.41c4.85,-6.12 10.88,-11.39 19.96,-10.27c2.89,0.36 5.08,-1.59 6.24,-4.19c1.22,-2.73 2.41,-5.53 3.09,-8.42c2.47,-10.53 6.68,-20.16 13.35,-28.77c2.2,-2.85 3.52,-6.4 5.11,-9.7c1.3,-2.69 0.67,-5.1 -1.31,-7.34c-6.73,-7.62 -13.36,-15.31 -20.08,-22.93c-1.42,-1.61 -2.71,-3.69 -4.89,-4.14c-9.22,-1.92 -11.44,-9.14 -13.18,-16.85c-0.62,-2.72 -0.33,-5.63 -1.69,-8.33c0,4.24 0.11,8.33 -0.03,12.4c-0.28,8.24 -0.33,8.23 7.26,11.26c1.99,0.8 4.96,1.44 4.5,3.94c-1.31,7.16 3.32,11.51 6.95,16.34c1.86,2.46 3.19,6.26 6.66,6.32c6.2,0.11 10.35,0.89 10.75,8.79c0.24,4.74 0.1,6.95 -5,6.53c-2.87,-0.24 -4.99,0.56 -6.43,2.83c-3.67,5.77 -7.51,10.82 -14.3,13.87c-3.73,1.67 -5.6,2.97 -7.63,-1c-5.42,2.23 -5.43,2.25 -11.36,1.59c-0.83,-0.1 -1.55,-0.23 -2.37,0.19c-6.06,3.1 -14.02,0.4 -16.52,-5.8c-2.04,-5.09 -3.72,-10.33 -5.65,-16.29m10.8,128.34c11.29,2.03 19.79,-4.03 22.09,-16.16c1.61,-8.48 2.77,-17.05 4.05,-25.59c0.56,-3.74 2.38,-5.09 6.25,-3.36c-2.91,-10.46 0.23,-19.81 4.9,-28.86c-6.41,-1.47 -12.73,1.03 -17.59,6.85c-7.91,9.48 -14.49,19.91 -21.05,30.34c-3.55,5.63 -7.28,11.14 -9.11,17.69c-2.84,10.1 -0.19,15.41 10.46,19.09m31.36,-10.7c2.58,2.58 5.38,-0.04 8.06,0.33c1.67,0.23 3.57,0.27 4.2,2.07c0.74,2.11 -1.06,3.05 -2.61,3.57c-15.21,5.09 -29.39,14.5 -46.65,11.09c-1.72,-0.34 -3.48,0.48 -4.08,2.21c-0.77,2.28 1.35,2.84 2.81,3.32c1.54,0.51 3.25,0.62 4.89,0.67c17.28,0.61 34.58,0.71 51.84,1.97c6.64,0.49 10.36,-2.68 11.35,-9.22c0.94,-6.23 -1.24,-11 -7.14,-14.01c-5.32,-2.72 -10.91,-4.9 -16.41,-7.26c-1.75,-0.75 -3.46,-2.69 -5.49,-1.37c-2.19,1.42 -1.45,3.82 -0.77,6.63m22.66,-30.61c-2.61,-7.91 -5.12,-15.84 -7.86,-23.7c-0.89,-2.55 -1.86,-5.3 -4.9,-6.47c-5.5,7.68 -7.53,15.65 -4.8,24.69c2.18,7.23 6.19,13.18 11.49,18.43c5.08,5.04 10.19,10.07 15.04,15.33c1.63,1.77 4.91,3.61 1.41,6.94c-0.87,0.82 0.04,2.83 1.92,3.18c4.26,-5.17 5.21,-9.07 2.34,-12.18c-6.84,-7.39 -11.05,-16.17 -14.64,-26.22m-27.74,-87.22c-4.66,-1.03 -8,-4.38 -12.46,-7.58c-0.32,4.38 -5.26,6.16 -4.98,9.08c0.47,4.95 2.23,10.16 6.78,13.38c1.98,1.4 4.32,1.75 6.61,0.45c3.7,-2.1 6.35,-10.59 4.05,-15.33m-5.52,-7.32c3.14,2.9 7.74,2.63 11.42,5.91c-0.6,-7.09 -1.46,-13.14 -8.14,-16.05c-4.61,-2.01 -9.25,-1.64 -13.14,1.59c-2.75,2.28 -4.77,5.3 -3.55,9.34c2.07,-0.08 2.33,-1.6 2.94,-2.68c2.05,-3.68 4.5,-4.11 7.49,-1.08c0.81,0.83 1.63,1.66 2.98,2.97m-23.64,-2.9c-2.94,2.41 -4.39,5.67 -3.87,9.27c0.78,5.44 2.68,10.66 4.93,15.66c1.32,2.95 4.06,4.39 7.34,4.2c1.71,-0.09 3.43,-0.94 3.87,-2.68c0.48,-1.88 -0.8,-3.19 -2.57,-3.68c-3.28,-0.92 -4.64,-3.53 -5.97,-6.27c-2.52,-5.2 -3.75,-10.62 -3.73,-16.5m17.38,-22.93c-1.17,2.31 -2.76,4.45 -3.19,7.81c6.36,-2.46 12.42,-1.75 18.73,0.72c-0.33,-2.18 -0.47,-3.65 -0.78,-5.09c-1.1,-5.06 -6.03,-5.15 -9.49,-7.01c-2.63,-1.42 -3.56,1.45 -5.27,3.57m20.59,48.49c2.21,-0.31 3.53,-1.82 4.49,-3.6c2.19,-4.08 4.67,-7.95 8.56,-11.53c-3.15,-1.66 -1.58,-4.42 -1.85,-6.33c-2.59,-1.88 -4.77,-3.47 -7.43,-5.4c0.35,1.58 0.56,2.53 0.77,3.47c1.5,7.09 1.78,13.85 -4.27,19.34c-0.89,0.81 -2.12,2.31 -0.27,4.05m5.11,91.97c-4.47,-4.59 -7.62,-10.05 -10.46,-16.99c-0.28,6.36 -2.58,11.31 -1.65,17.3c4.08,-2.67 7.35,-0.97 10.67,0.64c0.45,0.22 2.05,2.25 1.44,-0.95m38.87,31.38c-2.83,-3.21 -7.1,-5.02 -8.54,-9.57c-3.11,1.9 -2.82,4.84 -3.46,7.29c-0.91,3.54 0.59,5.12 4.24,4.33c2.43,-0.53 4.84,-1.18 7.76,-2.05m-65.24,-187.66c-0.95,3.82 -1.5,7.73 -2.68,11.48c8.47,-4.77 2.93,-12.37 3.73,-18.7c-0.29,2.14 -0.58,4.28 -1.05,7.22m32.31,155.9c1,0.52 1.99,1.03 2.99,1.55c0.11,-0.2 0.22,-0.41 0.34,-0.61c-4.29,-4.71 -8.58,-9.41 -12.86,-14.12c1.46,5.47 4.77,9.48 9.53,13.18m-17.52,15.98c-0.86,-2.21 -1.72,-4.42 -2.64,-6.79c-1.47,3.33 -2.84,6.42 -4.39,9.91c2.89,-0.5 5.18,-0.77 7.03,-3.12m56.79,12.04c0.13,-0.09 0.34,-0.16 0.38,-0.28c0.04,-0.13 -0.03,-0.39 -0.13,-0.44c-3.1,-1.56 -5.2,-4.97 -9.65,-5.31c1.83,4.45 5.67,4.8 9.4,6.03z" fill="rgb(0,0,0)" fill-rule="nonzero" id="svg_5" stroke-dashoffset="0" stroke-miterlimit="4" transform="translate(-484.93 -394.82)"/>
    </g>
    <g id="svg_6" transform="matrix(1 0 0 1 -238.32 3.43)">
     <path d="m-37.29,-46.24c0.88,-1.76 2.39,-2.82 2.37,-4.97c-3.28,-0.83 -6.44,0.66 -9.67,0.59c-12.57,-0.29 -17.72,-8.79 -11.76,-19.87c4.51,-8.4 11.23,-14.85 18.88,-20.33c14.47,-10.39 30.43,-17.03 48.28,-18.88c4.38,-0.45 8.66,-0.04 12.91,0.79c13.45,2.66 19.02,16.71 11.23,28.12c-4.85,7.09 -11.96,11.44 -19.04,15.84c-0.54,0.33 -1.33,0.38 -1.38,1.56c0.55,0.3 1.21,0.81 1.95,1.03c12.56,3.82 19.45,18.99 11.35,33.86c-6.62,12.14 -16.72,21.04 -27.88,28.71c-2.55,1.75 -6.6,-0.32 -9.83,1.91c-4.3,2.98 -8.85,5.49 -14.04,7.08c-5.7,1.75 -11.45,3.29 -17.17,4.95c-2.21,0.63 -4.14,1.13 -6.04,2.92c-2.87,2.73 -6.37,0.66 -9.11,-1c-7.19,-4.36 -8.76,-13.7 -3.6,-20.35c2.76,-3.56 5.95,-6.73 9.69,-9.32c1.33,-0.92 2.78,-1.75 2.36,-3.93c-1.45,-7.6 1.96,-13.97 5.43,-20.27c1.52,-2.77 3.25,-5.43 5.07,-8.44m26.92,-9.2c-2.98,-0.43 -5.6,-0.4 -7.67,2.57c-6.09,8.75 -12.4,17.34 -17.71,26.6c-0.69,1.2 -1.61,2.39 -1.1,4.4c17.94,-9.22 36.62,-14.85 56.57,-17.27c-0.22,2.01 -1.2,1.93 -1.94,2.17c-12.48,3.95 -25.45,5.48 -37,13.35c-11.02,7.49 -23.78,12.48 -33.41,22.17c-2.52,2.55 -6.33,5.72 -4.44,9.22c1.84,3.4 6.64,2.88 10.49,2.46c16.16,-1.8 30.27,-8.82 43.52,-17.66c10.73,-7.17 20.61,-15.47 26.9,-26.99c3.04,-5.55 6.54,-11.7 1.25,-18.05c-5.09,-6.11 -15.48,-8.79 -23.2,-6.3c-3.79,1.23 -7.69,2.13 -12.26,3.33m9.88,-40.7c1.7,-1.4 2.11,-6.02 5.78,-2.66c7.17,6.57 7.2,7.89 1.17,15.58c-1.13,1.44 -2.44,2.74 -3.52,4.21c-2.95,4.03 -6.8,7.44 -9.09,12c1.7,0.97 2.74,0.23 3.78,-0.19c10.24,-4.19 19.8,-9.52 28.3,-16.67c2.98,-2.51 5.22,-5.55 6.98,-9.01c1.44,-2.84 0.99,-5.04 -1.68,-6.9c-7.31,-5.1 -15.02,-8.27 -24.25,-6.6c-6.4,1.15 -12.66,2.56 -18.81,4.78c-17.2,6.2 -30.73,16.83 -40.22,32.49c-1.28,2.12 -2.29,4.45 -3.06,6.8c-1.23,3.77 0.36,6.51 4.19,6.93c9.75,1.07 19.01,1.19 25.72,-8.44c7.61,-10.92 16.15,-21.18 24.71,-32.32z" fill="rgb(0,0,0)" fill-rule="nonzero" id="svg_7" stroke-dashoffset="0" stroke-miterlimit="4" transform="translate(-225.72 -398.26)"/>
    </g>
    <g id="svg_8" transform="matrix(1 0 0 1 126.06 4.42)">
     <path d="m357.46,-29.69c-6.12,9.36 -11.97,18.45 -16.6,28.25c-1.92,4.07 -3.77,8.22 -4.35,12.72c-0.46,3.59 -0.73,7.33 2.41,10.19c-4.33,2 -9.26,-0.99 -9.9,-6.18c-0.72,-5.8 -0.54,-11.59 1.75,-17.2c8.65,-21.14 21.78,-39.65 34.39,-58.45c8.51,-12.7 17.81,-24.85 27.54,-37.26c-5.79,-1.02 -10.78,0.62 -15.83,1.01c-6.3,0.49 -12.58,1.28 -18.85,2.13c-3.61,0.49 -7.34,0.99 -10.29,3.41c-6.25,5.14 -14.01,2.12 -20.96,3.92c-9.79,2.54 -19.99,3.48 -30.02,5.06c-3.04,0.48 -5.96,0.91 -7.07,-3.31c-1.1,-4.21 1.87,-4.93 4.51,-5.71c13.35,-3.98 27,-6.16 40.93,-5.19c11.77,0.82 23.2,-1.4 34.75,-2.75c6.62,-0.77 13.25,-1.87 19.87,-1.89c5.12,-0.02 7.85,-2.41 10.35,-6.27c3.79,-5.86 4.21,-5.79 8.14,-0.34c2.64,3.64 2.64,3.64 6.72,6.13c-7.39,1.04 -9.71,7.34 -13.43,11.97c-15.42,19.22 -30.35,38.82 -44.06,59.76z" fill="rgb(0,0,0)" fill-rule="nonzero" id="svg_9" stroke-dashoffset="0" stroke-miterlimit="4" transform="translate(-590.1 -399.24)"/>
    </g>
    <g id="svg_10" transform="matrix(1 0 0 1 -80.79 33.36)">
     <path d="m148.91,-41.36c-0.53,1.52 -1.73,2.52 -1.01,4.31c3.17,-0.39 5.06,-2.86 7.07,-4.82c3.45,-3.37 6.66,-7 9.83,-10.63c5.05,-5.77 9.92,-4.96 12.51,2.36c0.91,2.6 1.13,5.46 1.68,8.25c3.65,1.32 6.99,-2.43 11.05,-0.39c-2.46,2.34 -5.46,2.56 -8.06,3.55c-2.51,0.96 -4.06,2.37 -4.79,5.16c-4.1,15.8 -12.72,29.19 -23.58,41.02c-7.32,7.98 -16,14.48 -26.87,17.21c-8.53,2.14 -16.19,-0.09 -23,-5.21c-3.72,-2.8 -3.46,-6.97 -2.37,-10.99c1.48,-5.48 4.94,-9.75 8.79,-13.73c8.2,-8.49 18.14,-14.54 28.42,-20.09c1.85,-1 4.07,-1.47 5.38,-3.29c-0.2,-1.45 -1.34,-1.97 -2.26,-2.62c-5.94,-4.24 -6.92,-7.35 -3.97,-13.87c1.44,-3.18 3.16,-6.25 5.64,-8.78c1.76,-1.8 3.39,-4.95 6.39,-1.9c2.41,2.46 6.18,4.77 2.55,9.13c-1.26,1.52 -2.16,3.34 -3.4,5.33m-32.25,38.43c-3.74,3.84 -7,7.99 -8.55,13.27c-2.09,7.11 1.35,11.03 8.75,9.78c7.21,-1.22 13.62,-4.34 19.31,-8.81c14.5,-11.35 23.73,-26.68 31.89,-42.79c0.3,-0.6 0.41,-1.28 -0.99,-2.43c-18.44,6.65 -35.73,15.93 -50.41,30.98m51.85,-35.17c4.88,-2.71 6.43,-9.34 2.85,-15.04c-5.15,6.44 -10.12,12.65 -15.64,19.55c4.61,-1.61 8.34,-2.91 12.79,-4.51z" fill="rgb(0,0,0)" fill-rule="nonzero" id="svg_11" stroke-dashoffset="0" stroke-miterlimit="4" transform="translate(-383.25 -428.18)"/>
    </g>
    <g id="svg_12" transform="matrix(1 0 0 1 -107.59 -5.83)">
     <path d="m145.66,-100.77c5.39,6.47 5.53,6.56 1.14,13.35c-9.12,14.1 -18.57,28.01 -26.35,42.91c-4.53,8.68 -9.36,17.27 -11.96,26.8c-0.76,2.79 -2.04,5.8 1.44,8.2c-6.41,1.47 -8.84,-0.32 -9.15,-5.83c-0.35,-5.99 2.12,-11.36 3.67,-17.12c-1.49,-0.24 -2.06,1 -2.65,1.72c-3.46,4.19 -7.07,2.3 -10.71,0.43c-3.46,-1.78 -4.27,-4.68 -3.77,-8.38c0.77,-5.74 3.55,-10.25 7.68,-14.15c6.32,-5.95 10.07,-6.32 17.17,-1.28c5.25,-5.6 8.84,-12.34 12.6,-18.94c5.2,-9.13 11.57,-17.47 17.35,-26.2c0.76,-1.14 1.57,-2.21 3.54,-1.51m-43.05,61.78c2.28,-4.38 7.75,-7.53 5.71,-13.9c-7.16,2.92 -12.53,12.64 -11.15,19.77c2.5,-1.03 3.5,-3.41 5.44,-5.87z" fill="rgb(0,0,0)" fill-rule="nonzero" id="svg_13" stroke-dashoffset="0" stroke-miterlimit="4" transform="translate(-356.45 -388.99)"/>
    </g>
    <g id="svg_14" transform="matrix(1 0 0 1 224.66 16.6)">
     <path d="m435.71,-17.41c-7.22,-2.3 -9.67,-6.98 -7.62,-13.63c1.86,-6.06 5.68,-10.86 9.71,-15.55c1.76,-2.05 3.48,-2.37 5.33,-0.08c1.82,2.27 4.56,3.9 4.67,7.67c2.86,-2.16 5.22,-4.23 7.88,-5.84c2.09,-1.27 4.63,-3.88 6.98,-0.83c2.07,2.68 5.16,5.34 1.81,9.59c-2.32,2.95 -3.65,6.68 -5.35,10.11c-0.58,1.17 -0.99,2.46 -0.27,4.05c4.31,-0.14 6.59,-3.33 9.36,-5.83c1.39,-1.25 2.59,-4.41 5.1,-1.92c2.26,2.25 -0.34,3.92 -1.59,5.46c-1.77,2.18 -3.66,4.3 -6.31,5.57c-4.12,1.97 -7.85,2.91 -11.91,-0.72c-4.02,-3.58 -4.35,-7.55 -3.08,-12.18c0.43,-1.55 0.99,-3.07 1.83,-5.61c-6.09,6.93 -11.89,12.63 -16.54,19.74z" fill="rgb(0,0,0)" fill-rule="nonzero" id="svg_15" stroke-dashoffset="0" stroke-miterlimit="4" transform="translate(-688.7 -411.42)"/>
    </g>
    <g id="svg_16" transform="matrix(1 0 0 1 271.56 16.8)">
     <path d="m506.31,-20.64c-8.91,5.65 -14.95,5.19 -22.48,-1.41c-2.12,-1.86 -3.16,-4.27 -3.5,-6.98c-0.91,-7.18 7.18,-17.85 14.29,-18.93c3.85,-0.59 7.4,2.63 7.89,7.17c0.75,6.77 -3.6,12.76 -10.31,14.08c-1.2,0.24 -2.43,0.26 -2.55,1.79c-0.14,1.73 0.95,2.87 2.41,3.41c2.69,1.02 5.25,0.27 7.65,-1.09c3.79,-2.14 7.16,-4.85 10.41,-7.73c1.23,-1.08 2.65,-2.37 4.28,-0.54c1.6,1.78 0.34,3.1 -0.93,4.22c-2.23,2 -4.56,3.88 -7.16,6.01z" fill="rgb(0,0,0)" fill-rule="nonzero" id="svg_17" stroke-dashoffset="0" stroke-miterlimit="4" transform="translate(-735.6 -411.62)"/>
    </g>
    <g id="svg_18" transform="matrix(1 0 0 1 179.23 16.51)">
     <path d="m398.59,-48.05c8.57,-0.31 13.28,4.38 15.16,14.64c1.72,0.69 3.19,-0.31 4.74,-0.75c1.43,-0.41 2.72,-0.25 3.28,1.33c0.52,1.47 -0.53,2.45 -1.68,2.51c-7.2,0.39 -11.01,5.53 -15.24,10.32c-2.7,3.06 -5.98,3.65 -9.79,1.21c-4.09,-2.61 -7.34,-5.47 -5.86,-10.81c0.98,-3.54 1.73,-7 1.68,-10.73c-0.06,-4.68 3.47,-6.42 7.71,-7.72m5.67,5.43c-2.5,-0.06 -4.99,-0.12 -6.64,2.66c1.52,2.89 4.09,4.8 6.81,7.77c1.2,-3.94 4.66,-6.77 -0.17,-10.43m-5.02,17.81c0.83,-1.41 3.05,-2.05 2.38,-4.65c-3.49,0.41 -4.25,2.61 -4.09,5.54c0.43,-0.17 0.87,-0.35 1.71,-0.89z" fill="rgb(0,0,0)" fill-rule="nonzero" id="svg_19" stroke-dashoffset="0" stroke-miterlimit="4" transform="translate(-643.27 -411.33)"/>
    </g>
    <g id="svg_20" transform="matrix(1 0 0 1 -161 6.91)">
     <path d="m79.78,-43.9c2.74,1.89 2.36,3.65 -0.37,4.14c-6.05,1.08 -10.23,4.36 -13.86,9.21c-2.27,3.04 -5.72,5.19 -10.05,2.72c-6.01,-3.42 -7.87,-6.36 -6.4,-11.95c0.9,-3.4 1.59,-6.65 1.42,-10.23c-0.17,-3.6 2.48,-5.71 5.62,-6.87c3.98,-1.47 7.84,-1.29 11.19,1.76c3.57,3.25 5.92,7.09 5.21,12.01c2.84,0.79 4.76,-0.67 7.24,-0.79m-20.95,-3.07c1.27,1.71 2.53,3.41 3.69,4.97c3.27,-2.24 3.53,-4.63 4.02,-6.84c0.3,-1.39 -0.23,-2.79 -1.65,-3.28c-2.53,-0.88 -4.97,-0.07 -7.02,1.35c-1.56,1.07 -0.39,2.31 0.96,3.8m1.23,11.4c0.56,-0.9 1.86,-1.56 1.07,-2.89c-0.19,-0.33 -0.93,-0.68 -1.22,-0.56c-2.42,1.03 -2.49,3.37 -3.24,5.48c1.69,0.28 2.16,-0.97 3.39,-2.03z" fill="rgb(0,0,0)" fill-rule="nonzero" id="svg_21" stroke-dashoffset="0" stroke-miterlimit="4" transform="translate(-303.04 -401.74)"/>
    </g>
    <g id="svg_22" transform="matrix(1 0 0 1 233.03 -46.44)">
     <path d="m432.69,-103.67c18.54,-0.8 36.65,-0.94 54.7,1.32c1.81,0.23 3.58,0.73 5.39,0.97c4.28,0.56 7.12,2.03 6.73,7.26c-0.4,5.29 -3.55,6.55 -8.75,7.08c2.11,-7.97 -3.9,-7.37 -8.49,-9.62c-11.63,-5.71 -23.81,-3.84 -35.82,-4.27c-8.13,-0.3 -16.28,0.13 -24.42,0.17c-1.03,0 -2.38,0.46 -3.24,-1.75c4.48,-1.49 9.13,-0.36 13.9,-1.16z" fill="rgb(0,0,0)" fill-rule="nonzero" id="svg_23" stroke-dashoffset="0" stroke-miterlimit="4" transform="translate(-697.07 -348.38)"/>
    </g>
   </g>
  </g>
 </g>
</svg>